<svg width="344" height="130" viewBox="0 0 344 130" fill="none" xmlns="http://www.w3.org/2000/svg">
<path d="M-14.4105 54.6031C10.2673 25.8784 54.7327 25.8784 79.4105 54.6031V54.6031C113.864 94.7063 85.3707 156.75 32.5 156.75V156.75C-20.3708 156.75 -48.864 94.7063 -14.4105 54.6031V54.6031Z" fill="white"/>
<path d="M71.5895 79.6031C96.2673 50.8784 140.733 50.8784 165.411 79.6031V79.6031C199.864 119.706 171.371 181.75 118.5 181.75V181.75C65.6292 181.75 37.136 119.706 71.5895 79.6031V79.6031Z" fill="white"/>
<path d="M141.589 69.6031C166.267 40.8784 210.733 40.8784 235.411 69.6031V69.6031C269.864 109.706 241.371 171.75 188.5 171.75V171.75C135.629 171.75 107.136 109.706 141.589 69.6031V69.6031Z" fill="white"/>
</svg>
