<svg width="229" height="186" viewBox="0 0 229 186" fill="none" xmlns="http://www.w3.org/2000/svg">
<path d="M127.585 89.2593C148.417 54.6591 198.583 54.6591 219.415 89.2593V89.2593C240.923 124.98 215.196 170.5 173.5 170.5V170.5C131.804 170.5 106.077 124.98 127.585 89.2593V89.2593Z" fill="white"/>
<path d="M189.726 75.9396C209.499 42.0242 258.501 42.0242 278.274 75.9396V75.9396C298.192 110.105 273.548 153 234 153V153C194.452 153 169.808 110.105 189.726 75.9396V75.9396Z" fill="white"/>
<path d="M139.175 136.767C160.688 101.958 211.312 101.958 232.825 136.767V136.767C255.488 173.439 229.11 220.75 186 220.75V220.75C142.89 220.75 116.512 173.439 139.175 136.767V136.767Z" fill="white"/>
<path d="M67.1754 145.767C88.6878 110.958 139.312 110.958 160.825 145.767V145.767C183.488 182.439 157.11 229.75 114 229.75V229.75C70.8902 229.75 44.5119 182.439 67.1754 145.767V145.767Z" fill="white"/>
</svg>
