<svg width="487" height="316" viewBox="0 0 487 316" fill="none" xmlns="http://www.w3.org/2000/svg">
<path d="M118.589 54.6031C143.267 25.8784 187.733 25.8784 212.411 54.6031V54.6031C246.864 94.7063 218.371 156.75 165.5 156.75V156.75C112.629 156.75 84.136 94.7063 118.589 54.6031V54.6031Z" fill="white"/>
<path d="M184.589 71.6031C209.267 42.8784 253.733 42.8784 278.411 71.6031V71.6031C312.864 111.706 284.371 173.75 231.5 173.75V173.75C178.629 173.75 150.136 111.706 184.589 71.6031V71.6031Z" fill="white"/>
<path d="M284.589 85.6031C309.267 56.8784 353.733 56.8784 378.411 85.6031V85.6031C412.864 125.706 384.371 187.75 331.5 187.75V187.75C278.629 187.75 250.136 125.706 284.589 85.6031V85.6031Z" fill="white"/>
<path d="M257.589 151.603C282.267 122.878 326.733 122.878 351.411 151.603V151.603C385.864 191.706 357.371 253.75 304.5 253.75V253.75C251.629 253.75 223.136 191.706 257.589 151.603V151.603Z" fill="white"/>
<path d="M108.589 128.603C133.267 99.8784 177.733 99.8784 202.411 128.603V128.603C236.864 168.706 208.371 230.75 155.5 230.75V230.75C102.629 230.75 74.136 168.706 108.589 128.603V128.603Z" fill="white"/>
<path d="M179.589 161.603C204.267 132.878 248.733 132.878 273.411 161.603V161.603C307.864 201.706 279.371 263.75 226.5 263.75V263.75C173.629 263.75 145.136 201.706 179.589 161.603V161.603Z" fill="white"/>
</svg>
