<svg width="387" height="330" viewBox="0 0 387 330" fill="none" xmlns="http://www.w3.org/2000/svg">
<path d="M71.5895 54.6031C96.2673 25.8784 140.733 25.8784 165.411 54.6031V54.6031C199.864 94.7063 171.371 156.75 118.5 156.75V156.75C65.6292 156.75 37.136 94.7063 71.5895 54.6031V54.6031Z" fill="white"/>
<path d="M108.589 97.6031C133.267 68.8784 177.733 68.8784 202.411 97.6031V97.6031C236.864 137.706 208.371 199.75 155.5 199.75V199.75C102.629 199.75 74.136 137.706 108.589 97.6031V97.6031Z" fill="white"/>
<path d="M164.589 54.6031C189.267 25.8784 233.733 25.8784 258.411 54.6031V54.6031C292.864 94.7063 264.371 156.75 211.5 156.75V156.75C158.629 156.75 130.136 94.7063 164.589 54.6031V54.6031Z" fill="white"/>
<path d="M184.589 117.603C209.267 88.8784 253.733 88.8784 278.411 117.603V117.603C312.864 157.706 284.371 219.75 231.5 219.75V219.75C178.629 219.75 150.136 157.706 184.589 117.603V117.603Z" fill="white"/>
<path d="M71.5895 137.603C96.2673 108.878 140.733 108.878 165.411 137.603V137.603C199.864 177.706 171.371 239.75 118.5 239.75V239.75C65.6292 239.75 37.136 177.706 71.5895 137.603V137.603Z" fill="white"/>
<path d="M122.589 175.603C147.267 146.878 191.733 146.878 216.411 175.603V175.603C250.864 215.706 222.371 277.75 169.5 277.75V277.75C116.629 277.75 88.136 215.706 122.589 175.603V175.603Z" fill="white"/>
</svg>
