<svg width="444" height="423" viewBox="0 0 444 423" fill="none" xmlns="http://www.w3.org/2000/svg">
<ellipse cx="30.1037" cy="61.1415" rx="30.1037" ry="61.1415" transform="matrix(0.721583 0.692328 -0.721583 0.692328 400.34 0)" fill="white"/>
<rect width="59.7368" height="341.911" transform="matrix(0.721583 0.692328 -0.721583 0.692328 358.385 40.0218)" fill="white"/>
<path d="M51.451 265.986C46.4314 263.938 47.9425 256.48 53.3962 256.385L134.169 254.987C137.343 254.932 139.728 257.786 139.099 260.889L132.672 292.614C132.043 295.716 128.718 297.505 125.796 296.314L51.451 265.986Z" fill="white"/>
<path d="M176.442 375.082C176.261 380.414 168.921 381.677 166.82 376.738L136.04 304.369C134.784 301.417 136.582 298.105 139.733 297.563L173.168 291.81C176.32 291.268 179.205 293.775 179.097 296.961L176.442 375.082Z" fill="white"/>
<path d="M350.573 321.579C351.071 340.272 325.209 345.48 317.831 328.173L246.121 159.948C241.926 150.108 247.725 139.042 258.179 136.937L325.05 123.47C335.504 121.364 345.451 129.259 345.734 139.887L350.573 321.579Z" fill="white"/>
<path d="M101.935 123.862C84.1624 117.237 89.4231 90.8825 108.49 91.0269L295.095 92.4397C305.693 92.5199 313.513 102.098 311.443 112.464L298.782 175.892C296.713 186.258 285.758 192.386 275.879 188.704L101.935 123.862Z" fill="white"/>
<ellipse cx="126.629" cy="303.737" rx="14.8975" ry="14.2935" fill="white"/>
</svg>
